<?xml version="1.0" encoding="UTF-8" standalone="no"?>
<svg width="28px" height="28px" viewBox="0 0 28 28" version="1.1" xmlns="http://www.w3.org/2000/svg" xmlns:xlink="http://www.w3.org/1999/xlink">
    <!-- Generator: Sketch 40.3 (33839) - http://www.bohemiancoding.com/sketch -->
    <title>information-button copy</title>
    <desc>Created with Sketch.</desc>
    <defs></defs>
    <g id="还款" stroke="none" stroke-width="1" fill="none" fill-rule="evenodd">
        <g id="information-button-copy" fill="#F55151">
            <g id="Capa_1">
                <path d="M13.7806667,0 C6.1705,0 0,6.1705 0,13.7806667 C0,21.3908333 6.1705,27.5625 13.7806667,27.5625 C21.3908333,27.5625 27.5625,21.3908333 27.5625,13.7806667 C27.5625,6.1705 21.3908333,0 13.7806667,0 L13.7806667,0 Z M16.6495,21.3581667 C15.9401667,21.6381667 15.3755,21.8505 14.952,21.9975 C14.5296667,22.1445 14.0385,22.218 13.4796667,22.218 C12.621,22.218 11.9525,22.008 11.4765,21.5891667 C11.0005,21.1703333 10.7636667,20.6395 10.7636667,19.9943333 C10.7636667,19.7435 10.7811667,19.4868333 10.8161667,19.2255 C10.8523333,18.9641667 10.9095,18.6701667 10.9876667,18.34 L11.8755,15.204 C11.9536667,14.903 12.0213333,14.6171667 12.075,14.3511667 C12.1286667,14.0828333 12.1543333,13.8366667 12.1543333,13.6126667 C12.1543333,13.2136667 12.0715,12.9336667 11.907,12.7761667 C11.7401667,12.6186667 11.4263333,12.5416667 10.9585,12.5416667 C10.7298333,12.5416667 10.4941667,12.5755 10.2526667,12.6466667 C10.0135,12.7201667 9.80583333,12.7866667 9.6355,12.852 L9.87,11.886 C10.451,11.6491667 11.0075,11.4461667 11.5383333,11.2781667 C12.0691667,11.1078333 12.5708333,11.0238333 13.0433333,11.0238333 C13.8961667,11.0238333 14.5541667,11.2315 15.0173333,11.6421667 C15.4781667,12.054 15.7103333,12.5895 15.7103333,13.2475 C15.7103333,13.384 15.694,13.6243333 15.6625,13.9673333 C15.631,14.3115 15.5715,14.6253333 15.4851667,14.9135 L14.602,18.0401667 C14.5296667,18.291 14.4655,18.578 14.4071667,18.8988333 C14.35,19.2196667 14.322,19.4646667 14.322,19.6291667 C14.322,20.0445 14.4141667,20.328 14.6008333,20.4785 C14.7851667,20.629 15.1083333,20.7048333 15.5656667,20.7048333 C15.7815,20.7048333 16.023,20.6663333 16.296,20.5916667 C16.5666667,20.517 16.7626667,20.4505 16.8863333,20.3933333 L16.6495,21.3581667 L16.6495,21.3581667 Z M16.4931667,8.66716667 C16.0813333,9.04983333 15.5855,9.24116667 15.0056667,9.24116667 C14.427,9.24116667 13.9276667,9.04983333 13.5123333,8.66716667 C13.0993333,8.2845 12.8905,7.819 12.8905,7.27533333 C12.8905,6.73283333 13.1005,6.26616667 13.5123333,5.88 C13.9276667,5.49266667 14.427,5.30016667 15.0056667,5.30016667 C15.5855,5.30016667 16.0825,5.49266667 16.4931667,5.88 C16.905,6.26616667 17.1115,6.73283333 17.1115,7.27533333 C17.1115,7.82016667 16.905,8.2845 16.4931667,8.66716667 L16.4931667,8.66716667 Z" id="Shape"></path>
            </g>
        </g>
    </g>
</svg>