<?xml version="1.0" encoding="UTF-8" standalone="no"?>
<svg width="30px" height="30px" viewBox="0 0 30 30" version="1.1" xmlns="http://www.w3.org/2000/svg" xmlns:xlink="http://www.w3.org/1999/xlink">
    <!-- Generator: Sketch 39.1 (31720) - http://www.bohemiancoding.com/sketch -->
    <title>Search Icon Copy 2</title>
    <desc>Created with Sketch.</desc>
    <defs></defs>
    <g id="购买" stroke="none" stroke-width="1" fill="none" fill-rule="evenodd">
        <path d="M18.3111778,20.7494543 C16.4039307,22.1565913 14.0461654,22.988292 11.494146,22.988292 C5.14610444,22.988292 0,17.8421875 0,11.494146 C0,5.14610444 5.14610444,0 11.494146,0 C17.8421875,0 22.988292,5.14610444 22.988292,11.494146 C22.988292,14.0461654 22.1565913,16.4039307 20.7494543,18.3111778 L29.5964329,27.1581563 C29.9891269,27.5508503 29.9887061,28.1879537 29.6022176,28.5744422 L28.5744422,29.6022176 C28.1849431,29.9917167 27.5482507,29.9865273 27.1581563,29.5964329 L18.3111778,20.7494543 Z M11.494146,20.6894628 C16.5725792,20.6894628 20.6894628,16.5725792 20.6894628,11.494146 C20.6894628,6.41571275 16.5725792,2.2988292 11.494146,2.2988292 C6.41571275,2.2988292 2.2988292,6.41571275 2.2988292,11.494146 C2.2988292,16.5725792 6.41571275,20.6894628 11.494146,20.6894628 Z" id="Search-Icon-Copy-2" fill="#8E8E93"></path>
    </g>
</svg>